<?xml version="1.0" standalone="no"?>
<!DOCTYPE svg PUBLIC "-//W3C//DTD SVG 20010904//EN"
 "http://www.w3.org/TR/2001/REC-SVG-20010904/DTD/svg10.dtd">
<svg version="1.0" xmlns="http://www.w3.org/2000/svg"
 width="260.000000pt" height="260.000000pt" viewBox="0 0 260.000000 260.000000"
 preserveAspectRatio="xMidYMid meet">
<metadata>
Created by potrace 1.14, written by Peter Selinger 2001-2017
</metadata>
<g transform="translate(0.000000,260.000000) scale(0.100000,-0.100000)"
fill="#000000" stroke="none">
<path d="M0 1300 l0 -1300 1300 0 1300 0 0 1300 0 1300 -1300 0 -1300 0 0
-1300z m2009 664 c133 -30 236 -115 267 -220 43 -151 -24 -301 -168 -375 l-42
-21 46 -18 c176 -67 266 -248 212 -430 -41 -139 -141 -222 -319 -267 -54 -13
-113 -17 -265 -17 -107 0 -207 3 -222 7 l-28 7 0 664 0 664 43 7 c144 25 361
24 476 -1z m-1074 -1 c13 -35 455 -1333 455 -1339 0 -2 -42 -3 -92 -2 l-93 3
-74 213 -74 212 -236 0 -236 0 -71 -212 -70 -213 -90 0 c-74 0 -88 3 -86 15 3
12 195 580 429 1268 l25 72 103 0 c89 0 104 -2 110 -17z"/>
<path d="M1718 1843 l-48 -4 0 -216 0 -215 138 4 c152 4 187 15 249 80 40 42
53 76 53 140 0 95 -48 160 -139 193 -44 15 -178 25 -253 18z"/>
<path d="M1670 1017 l0 -257 26 -6 c43 -11 236 3 285 21 61 21 127 78 150 129
26 57 25 157 -2 212 -49 101 -141 143 -331 151 l-128 6 0 -256z"/>
<path d="M801 1743 c-7 -32 -50 -169 -96 -305 l-83 -248 200 0 c187 0 200 1
193 18 -28 74 -175 525 -181 555 -3 20 -10 37 -14 37 -4 0 -12 -26 -19 -57z"/>
</g>
</svg>
